<?xml version="1.0" standalone="no"?>
<!DOCTYPE svg PUBLIC "-//W3C//DTD SVG 20010904//EN"
 "http://www.w3.org/TR/2001/REC-SVG-20010904/DTD/svg10.dtd">
<svg version="1.0" xmlns="http://www.w3.org/2000/svg"
 width="617.000000pt" height="405.000000pt" viewBox="0 0 617.000000 405.000000"
 preserveAspectRatio="xMidYMid meet">

<g transform="translate(0.000000,405.000000) scale(0.100000,-0.100000)"
fill="#000000" stroke="none">
<path d="M3356 1483 c-7 -8 -381 -15 -716 -14 -91 0 -244 0 -340 -1 -195 -2
-559 -2 -810 0 -91 1 -390 1 -665 1 -275 0 -547 0 -605 1 -58 0 -131 -3 -162
-6 l-58 -7 0 -113 0 -114 53 0 c29 0 58 5 64 11 8 8 19 6 42 -5 20 -11 40 -14
58 -9 16 4 36 6 47 4 11 -2 16 2 12 8 -4 7 1 11 14 11 11 0 23 6 26 14 10 26
60 40 93 26 23 -9 34 -9 51 0 13 7 38 10 56 7 28 -5 34 -3 34 12 0 16 5 17 42
11 27 -5 45 -4 49 2 4 6 9 6 14 -2 5 -8 1 -16 -9 -22 -18 -10 -22 -38 -4 -38
6 0 8 -3 5 -7 -4 -3 3 -11 16 -18 18 -9 26 -8 46 7 14 11 34 18 45 17 12 -1
28 1 36 4 8 3 37 8 64 11 69 8 100 26 104 59 4 31 44 47 73 28 29 -17 47 -13
87 18 31 24 66 33 90 22 10 -4 -22 -41 -37 -41 -22 0 -36 -29 -22 -43 5 -5 18
-6 28 -2 10 5 22 7 27 6 5 -1 6 5 3 14 -8 20 11 19 59 -4 74 -36 86 -36 113 4
15 22 30 34 40 31 9 -3 36 -8 61 -11 25 -4 52 -11 60 -15 18 -9 49 10 43 26
-5 14 28 24 77 24 20 0 44 6 55 14 20 13 92 15 113 2 6 -3 12 -1 14 6 3 9 52
14 164 18 175 6 264 2 244 -10 -10 -6 -8 -15 9 -38 11 -17 21 -33 21 -37 0
-10 -23 -30 -42 -38 -19 -7 -14 -37 6 -37 21 1 48 28 40 41 -5 9 -2 10 9 6 10
-4 24 -10 34 -14 11 -4 14 -3 9 5 -5 8 1 12 17 12 13 0 39 11 58 25 74 53 105
64 196 69 48 3 124 8 169 12 77 6 81 5 87 -15 3 -14 10 -19 21 -15 15 6 76
-24 76 -38 0 -5 -11 -18 -25 -30 -25 -21 -25 -22 -5 -40 16 -15 24 -17 41 -7
20 10 21 9 17 -20 -3 -18 -2 -34 2 -36 10 -6 187 29 197 39 4 5 -4 6 -19 2
-17 -4 -28 -2 -28 4 0 13 -43 13 -57 -1 -8 -8 -17 -5 -32 10 -12 12 -30 21
-41 21 -32 0 -23 18 20 40 49 25 61 25 93 -1 15 -11 32 -19 39 -18 7 1 25 -1
39 -5 20 -6 37 -1 67 18 22 14 43 30 47 36 4 6 15 4 30 -7 31 -23 31 -33 1
-33 -23 0 -36 -16 -36 -45 0 -10 16 -11 68 -8 37 3 68 7 70 8 2 2 -8 28 -22
59 -14 31 -31 76 -37 101 -11 44 -18 52 -33 38z m-2019 -74 c-14 -8 -22 -8
-30 0 -8 8 -3 11 19 11 25 -1 27 -2 11 -11z m-549 -77 c2 -8 -9 -12 -32 -12
-20 0 -36 -4 -36 -10 0 -12 -37 -13 -44 -1 -11 17 22 33 54 26 20 -4 30 -3 30
5 0 15 22 8 28 -8z"/>
<path d="M5554 1439 c-42 -43 -175 -109 -232 -114 -52 -5 -110 -20 -208 -56
-44 -16 -89 -29 -101 -29 -11 0 -23 -3 -27 -7 -4 -5 -11 -8 -14 -9 -4 0 -29
-12 -57 -25 -49 -23 -55 -24 -240 -20 -286 7 -325 5 -390 -13 -33 -10 -94 -19
-135 -22 -101 -6 -140 -13 -140 -24 0 -6 -9 -1 -20 10 -31 31 -61 33 -123 10
-56 -21 -97 -53 -97 -74 0 -6 5 -4 10 4 7 11 10 12 10 2 0 -7 -6 -20 -14 -27
-12 -12 -15 -11 -19 7 -4 16 -11 19 -28 15 -16 -4 -27 1 -42 20 -15 19 -26 24
-47 19 -16 -3 -35 1 -46 9 -23 17 -82 19 -120 4 -29 -10 -62 0 -92 29 -20 18
-43 15 -49 -8 -7 -26 -19 -25 -55 5 -35 29 -52 28 -56 -3 -4 -25 -10 -26 -173
-24 -89 1 -97 0 -102 -19 -5 -19 -7 -19 -42 -4 -21 8 -47 15 -59 14 -13 0 -5
-6 22 -16 23 -8 42 -18 42 -23 0 -12 49 -29 134 -45 61 -11 82 -12 87 -3 6 9
17 7 43 -7 30 -16 40 -18 56 -7 17 10 21 10 26 -2 7 -17 37 -22 255 -41 812
-71 1954 -14 2197 109 40 20 51 31 54 53 2 17 9 28 18 28 8 0 14 -5 13 -12 -2
-6 4 -24 12 -39 40 -77 -75 -127 -383 -169 -663 -88 -1573 -99 -2137 -25 -284
38 -406 68 -490 121 -51 32 -65 29 -65 -18 0 -19 6 -23 30 -23 36 0 39 -12 8
-27 -44 -21 -55 -21 -84 -1 -24 17 -25 19 -7 15 24 -5 40 20 23 37 -5 5 -10
18 -10 28 0 21 -4 22 -31 8 -32 -18 -88 -1 -104 30 -18 34 -61 49 -132 45 -41
-2 -57 -7 -72 -26 -23 -28 -37 -89 -23 -98 6 -4 3 -15 -8 -29 -21 -25 -30 -28
-30 -9 0 7 -17 21 -37 32 -21 10 -32 20 -25 22 6 3 9 9 6 14 -3 6 -11 4 -17
-5 -10 -12 -61 -21 -102 -17 -6 1 -11 13 -10 29 0 21 -5 28 -25 30 -14 2 -31
9 -38 14 -18 15 -107 11 -140 -6 -15 -8 -35 -30 -46 -49 -17 -33 -21 -35 -55
-30 -24 4 -45 17 -64 39 -23 28 -36 34 -66 34 -47 0 -101 -18 -101 -33 0 -7
-14 -20 -31 -30 -29 -16 -32 -16 -44 -1 -9 12 -16 14 -31 7 -10 -6 -46 -7 -79
-4 -48 5 -66 13 -91 36 -59 58 -76 68 -94 58 -8 -6 -30 -14 -48 -18 -31 -6
-42 -27 -22 -40 20 -12 10 -25 -14 -19 -26 6 -75 -21 -76 -42 0 -15 -48 -39
-57 -29 -5 4 -2 10 5 12 6 3 12 13 12 23 0 18 -26 30 -67 30 -29 0 -40 20 -20
35 21 15 22 35 2 35 -8 0 -15 -5 -15 -10 0 -6 -8 -10 -17 -8 -11 2 -19 -6 -23
-22 -4 -15 -12 -23 -21 -21 -8 2 -25 6 -39 8 -14 3 -34 9 -45 14 -26 12 -59 1
-100 -35 -35 -30 -58 -27 -93 11 -21 23 -31 26 -83 24 -32 -1 -59 1 -59 4 0 3
6 14 12 25 11 17 9 23 -9 41 -21 21 -21 21 -41 1 -13 -13 -17 -24 -11 -33 21
-34 10 -46 -48 -53 -31 -4 -63 -12 -70 -18 -8 -6 -24 -12 -36 -13 -69 -5 -118
-18 -113 -30 3 -8 -4 -23 -15 -36 l-19 -22 0 21 c0 14 6 22 17 22 15 0 14 2
-3 15 -10 8 -34 15 -51 15 l-33 0 1 -104 0 -105 27 2 c15 1 30 6 33 11 8 10
79 -14 79 -27 0 -4 -4 -5 -10 -2 -5 3 -10 2 -10 -3 0 -6 -15 -9 -32 -8 -25 1
-33 -3 -32 -15 1 -11 -5 -15 -16 -12 -24 6 -42 -21 -38 -58 3 -30 4 -32 19
-16 9 9 19 13 23 10 3 -4 6 -1 6 6 0 7 4 10 8 7 5 -3 18 3 28 12 31 29 49 31
80 11 16 -10 25 -19 19 -20 -5 0 -22 -2 -36 -3 -14 -1 -34 -9 -43 -19 -11 -11
-27 -15 -44 -12 -21 4 -23 3 -7 -3 19 -9 19 -9 0 -21 -20 -12 -20 -12 0 -8 11
3 28 8 39 12 14 6 17 4 14 -6 -3 -8 -11 -14 -19 -14 -8 0 -13 -8 -11 -17 2
-12 -3 -15 -20 -11 -20 4 -21 3 -6 -7 13 -8 22 -7 37 2 15 9 23 9 34 -1 10 -8
17 -9 22 -1 3 5 -1 10 -9 10 -28 0 -17 20 12 21 15 1 45 3 67 4 22 2 46 4 54
4 7 1 11 7 8 15 -4 10 -1 13 9 9 17 -6 18 -20 2 -26 -8 -3 -6 -6 5 -6 9 -1 17
-8 17 -17 0 -9 8 -23 18 -31 15 -13 15 -13 -5 -4 -28 14 -36 14 -27 -1 4 -8 2
-8 -7 1 -11 10 -11 15 -1 18 6 3 12 8 12 13 0 17 -34 20 -63 5 -36 -18 -40
-19 -31 -3 4 6 3 8 -4 4 -5 -3 -13 0 -16 6 -4 7 -4 2 -2 -11 3 -14 -3 -31 -15
-44 -10 -11 -17 -22 -15 -25 8 -7 47 19 41 28 -3 5 8 15 25 23 42 22 37 4 -10
-33 -44 -35 -45 -52 0 -44 22 5 31 1 41 -14 7 -11 19 -18 26 -15 8 3 13 -2 13
-15 0 -19 -34 -37 -52 -26 -11 7 -10 34 2 34 6 0 10 5 10 11 0 7 -18 9 -51 6
-28 -3 -48 -3 -46 0 9 8 -14 63 -27 63 -18 0 -36 -22 -36 -43 0 -16 5 -18 28
-13 20 5 23 4 12 -4 -19 -13 -50 -13 -51 0 -1 6 -2 14 -3 19 -2 20 -17 24 -41
11 -19 -10 -22 -16 -13 -22 10 -6 8 -8 -4 -8 -25 0 -11 -28 15 -32 30 -4 27
-20 -6 -36 -20 -10 -27 -20 -27 -43 0 -22 4 -28 13 -23 9 6 9 4 1 -7 -7 -9
-12 -73 -13 -172 l-2 -157 1839 0 c1626 0 1841 2 1846 15 3 8 10 15 16 15 5 0
10 -7 10 -15 0 -13 143 -15 1230 -15 l1230 0 0 70 c0 39 -4 70 -9 70 -15 0
-51 64 -42 73 5 5 18 4 30 -2 21 -12 31 2 11 14 -5 3 -10 11 -10 16 0 6 5 7
10 4 6 -3 10 4 10 15 0 19 -4 21 -25 16 -34 -9 -65 -41 -65 -67 0 -21 0 -21
-19 2 -19 23 -20 23 -34 5 -15 -20 -37 -14 -37 10 0 8 9 14 20 14 23 0 27 18
5 26 -17 7 -21 44 -5 44 6 0 15 -11 20 -24 12 -31 29 -41 36 -22 3 9 12 16 20
16 8 0 14 9 14 20 0 11 -4 20 -10 20 -5 0 -10 5 -10 12 0 6 7 4 18 -5 10 -10
26 -17 35 -17 9 0 17 -5 17 -11 0 -5 5 -7 10 -4 6 3 10 15 10 26 0 12 -4 17
-11 14 -6 -4 -17 1 -24 11 -14 18 -14 18 -15 -1 0 -15 -3 -16 -9 -7 -9 14 -3
62 8 62 11 0 28 -15 39 -35 9 -15 11 63 12 327 l0 348 -25 16 c-19 13 -28 14
-39 5 -11 -9 -33 -9 -95 1 -69 11 -81 15 -81 32 0 17 -3 16 -25 -8 -27 -29
-60 -34 -69 -10 -3 8 -2 12 4 9 17 -11 11 8 -10 30 l-20 22 41 18 c23 11 50
18 60 18 10 -1 21 2 24 7 8 12 -22 26 -72 35 -23 3 -48 14 -55 22 -17 20 -10
74 10 89 21 15 42 0 25 -17 -30 -30 17 -51 60 -27 12 7 29 12 37 13 8 1 23 2
33 3 9 1 17 9 17 18 0 13 2 13 13 2 27 -27 39 -58 28 -72 -11 -13 -5 -46 8
-46 14 0 29 23 24 36 -3 8 -2 25 1 39 6 22 9 24 26 15 16 -9 22 -6 35 20 8 16
22 30 30 30 12 0 15 14 15 64 l0 63 -62 7 c-35 4 -165 6 -290 5 l-228 -3 -36
-37z m491 -109 c3 -5 -1 -10 -9 -10 -9 0 -16 5 -16 10 0 6 4 10 9 10 6 0 13
-4 16 -10z m-687 -80 c56 -10 107 -22 113 -26 6 -3 27 -6 47 -6 46 1 97 -14
112 -33 11 -13 6 -14 -31 -9 -39 5 -99 0 -279 -22 -25 -3 -49 -9 -55 -13 -19
-16 -95 -22 -118 -10 -12 7 -47 11 -79 10 -32 -1 -58 2 -58 7 0 15 47 54 107
88 69 40 99 42 241 14z m-2108 -131 c0 -6 -4 -7 -10 -4 -5 3 -10 11 -10 16 0
6 5 7 10 4 6 -3 10 -11 10 -16z m-235 -49 c8 -13 -5 -13 -25 0 -13 8 -13 10 2
10 9 0 20 -4 23 -10z m-2107 -80 c16 -20 19 -31 11 -36 -7 -4 -18 1 -26 12
-11 15 -16 16 -31 6 -9 -7 -25 -15 -34 -18 -10 -4 -18 -10 -18 -14 0 -12 -28
-20 -46 -13 -12 5 -9 9 13 18 16 7 42 26 59 43 36 38 43 38 72 2z m3330 -16
c-4 -3 -12 5 -18 18 -12 22 -12 22 6 6 10 -10 15 -20 12 -24z m-2753 -24 c0
-15 -32 -17 -65 -4 -12 5 -11 8 5 15 29 12 60 6 60 -11z m-805 6 c0 -2 3 -11
6 -19 3 -9 -3 -16 -17 -20 -19 -5 -20 -8 -9 -21 10 -13 10 -16 -4 -16 -9 0
-16 -5 -16 -11 0 -7 -10 -9 -25 -7 -16 3 -24 1 -23 -6 2 -6 -1 -12 -7 -12 -19
-1 -45 8 -45 17 0 8 40 33 73 45 9 4 17 17 17 30 0 19 5 24 25 24 14 0 25 -2
25 -4z m-100 -15 c0 -5 -6 -14 -14 -20 -10 -8 -16 -8 -25 2 -6 8 -8 17 -4 20
9 10 43 8 43 -2z m577 -8 c2 -6 -4 -16 -14 -22 -16 -8 -19 -6 -19 15 0 25 25
31 33 7z m983 -3 c0 -5 -2 -10 -4 -10 -3 0 -8 5 -11 10 -3 6 -1 10 4 10 6 0
11 -4 11 -10z m-1183 -53 c-11 -33 -15 -37 -42 -35 -17 1 -36 -2 -43 -6 -7 -4
-15 -1 -18 8 -8 20 -27 20 -65 0 -28 -14 -32 -14 -43 2 -16 21 -56 10 -56 -15
0 -27 12 -33 26 -13 12 16 14 16 30 1 15 -16 15 -17 -4 -23 -14 -5 -19 -13
-15 -29 3 -15 2 -18 -4 -9 -13 17 -52 -17 -45 -38 3 -8 -5 -4 -17 9 l-21 24
25 17 c14 9 22 20 18 23 -12 13 -28 7 -55 -18 -15 -14 -31 -25 -35 -24 -21 4
-33 -2 -33 -16 0 -9 7 -15 16 -13 26 5 26 -31 0 -56 -12 -11 -23 -33 -24 -48
-2 -33 8 -36 26 -8 7 12 8 20 2 20 -5 0 -10 5 -10 11 0 6 7 9 15 5 10 -3 15 1
15 12 0 13 2 14 9 3 11 -16 31 -6 31 16 0 11 7 14 25 11 14 -3 25 -2 25 2 0 4
7 11 16 14 14 5 15 4 5 -8 -9 -11 -7 -13 13 -13 18 0 23 4 19 15 -5 11 -3 13
7 7 21 -13 72 -17 65 -5 -3 6 -13 10 -21 10 -16 0 -19 16 -3 25 5 4 19 -4 30
-17 24 -26 54 -32 87 -15 19 9 25 8 32 -3 13 -20 23 -6 15 20 -5 15 -12 19
-23 15 -32 -12 -37 -10 -34 14 3 34 11 39 27 18 7 -10 22 -17 32 -15 11 2 22
-5 29 -17 5 -11 18 -19 27 -17 9 2 17 -2 17 -8 0 -6 4 -9 8 -6 10 6 9 36 -2
54 -4 7 -5 16 -1 20 4 4 10 1 12 -5 3 -7 13 -13 24 -13 12 0 19 -7 18 -17 -1
-24 -17 -71 -18 -55 -1 6 -5 12 -11 12 -12 0 -13 -10 0 -30 7 -12 12 -12 29 4
11 10 20 21 19 25 -4 36 3 48 27 43 24 -4 36 -32 15 -32 -5 0 -10 5 -10 11 0
5 -5 7 -11 3 -8 -5 -8 -9 1 -14 9 -5 9 -9 1 -14 -16 -11 -13 -29 4 -22 8 3 14
0 12 -7 -1 -7 7 -11 17 -10 11 1 25 -5 33 -13 8 -8 23 -14 34 -14 11 0 18 -4
15 -9 -3 -5 6 -12 20 -15 26 -7 29 -27 3 -34 -12 -3 -12 -2 1 7 13 9 13 11 0
15 -8 3 -24 6 -35 8 -11 2 -29 11 -39 21 -18 16 -38 22 -60 18 -4 -1 -14 6
-21 16 -13 17 -14 17 -20 1 -4 -10 -22 -20 -40 -24 -18 -3 -43 -17 -56 -30
-12 -13 -26 -21 -32 -17 -5 3 -4 9 4 14 7 4 10 12 5 16 -11 11 -48 -37 -42
-54 3 -8 2 -12 -3 -9 -13 8 -70 -23 -84 -45 -16 -26 -24 -24 -29 10 -5 35 24
60 48 40 10 -8 14 -8 14 0 0 6 -6 11 -12 11 -7 1 -3 9 10 19 27 23 28 31 5 32
-12 1 -9 4 7 8 18 6 28 3 35 -10 9 -16 11 -16 33 1 20 17 21 20 6 35 -10 10
-24 13 -37 9 -19 -6 -20 -5 -8 10 30 36 -8 13 -64 -40 -46 -42 -54 -53 -35
-48 24 6 24 5 -5 -17 -16 -13 -33 -28 -37 -34 -5 -6 -8 -3 -8 8 0 9 -8 17 -17
17 -12 0 -6 8 17 24 36 26 70 60 85 86 7 12 5 12 -11 -1 -10 -9 -25 -14 -33
-11 -9 3 -11 0 -7 -7 8 -12 -23 -8 -70 10 -13 5 -32 2 -48 -6 -15 -8 -24 -10
-21 -5 15 24 -17 6 -63 -35 l-50 -45 -14 30 c-16 36 -19 37 -46 5 -12 -14 -26
-25 -32 -25 -6 0 -9 -10 -7 -22 2 -13 2 -17 0 -10 -3 7 -8 10 -12 8 -4 -3 -8
1 -8 9 0 8 9 17 19 21 19 6 19 6 1 24 -10 9 -21 16 -24 14 -4 -2 -9 3 -13 11
-3 9 3 19 17 25 21 11 21 11 3 -4 -16 -13 -17 -16 -4 -16 8 0 21 7 28 15 7 8
18 15 25 15 7 0 15 -7 19 -15 8 -22 33 -18 47 6 10 20 9 21 -17 15 -21 -5 -25
-4 -14 4 8 5 11 10 6 10 -5 0 -3 7 4 15 9 11 9 15 1 15 -7 0 -11 6 -10 13 3
24 -1 38 -10 32 -6 -3 -9 -18 -7 -33 3 -27 -9 -52 -25 -52 -5 0 -9 7 -9 16 0
14 -1 14 -16 0 -8 -9 -21 -16 -27 -16 -7 0 -6 4 3 10 22 14 5 23 -20 10 -29
-16 -37 -5 -15 20 20 23 6 27 -25 8 -17 -11 -22 -10 -29 0 -4 7 -15 10 -24 7
-10 -4 -20 1 -27 14 -13 25 -26 26 -46 7 -19 -20 -18 -26 6 -26 11 0 20 -4 20
-10 0 -13 -6 -13 -31 0 -14 8 -25 6 -44 -6 -16 -10 -25 -12 -25 -5 0 6 7 14
16 18 9 3 27 16 40 28 18 16 21 24 12 33 -9 9 -9 12 -1 12 7 0 14 -4 17 -9 8
-12 56 11 56 27 0 19 28 14 40 -7 5 -11 7 -26 4 -34 -3 -8 1 -17 8 -20 10 -3
14 5 14 28 0 31 32 74 57 75 15 0 6 -26 -14 -38 -17 -11 -19 -16 -7 -29 7 -9
11 -19 8 -22 -3 -3 6 -7 20 -8 14 -1 19 0 13 3 -15 7 -18 44 -4 44 6 0 17 -9
25 -21 18 -26 40 -15 32 16 -9 34 10 40 26 9 7 -15 20 -28 28 -30 8 -1 23 -5
33 -9 20 -8 25 20 5 29 -10 4 -10 7 -1 12 6 3 21 14 34 25 12 10 29 19 38 19
22 1 54 27 47 38 -4 6 3 8 16 4 13 -3 27 -11 31 -19 11 -19 30 -16 50 7 21 25
37 26 37 1 0 -32 20 -35 48 -8 22 20 58 37 69 33 1 -1 -4 -18 -10 -39z m-907
13 c0 -5 -5 -10 -11 -10 -5 0 -7 5 -4 10 3 6 8 10 11 10 2 0 4 -4 4 -10z m63
-10 c-3 -11 -12 -20 -19 -20 -17 0 -18 12 -2 28 18 18 27 15 21 -8z m918 4
c11 -14 13 -14 21 0 10 18 38 22 38 6 0 -6 -7 -13 -15 -16 -21 -8 -19 -34 3
-34 29 0 49 -17 35 -31 -8 -8 -19 -8 -42 4 -28 14 -32 14 -56 -5 -14 -11 -25
-18 -26 -16 -7 26 -5 58 4 81 14 31 20 33 38 11z m189 6 c0 -5 -2 -10 -4 -10
-3 0 -8 5 -11 10 -3 6 -1 10 4 10 6 0 11 -4 11 -10z m1686 -52 c3 -5 3 -12 0
-15 -8 -8 -76 29 -70 38 5 9 62 -9 70 -23z m-2856 2 c0 -5 -4 -10 -10 -10 -5
0 -10 5 -10 10 0 6 5 10 10 10 6 0 10 -4 10 -10z m1945 -11 c5 -5 -1 -9 -17
-9 -15 0 -30 5 -33 11 -5 7 -14 4 -26 -7 -21 -19 -27 -6 -7 14 13 13 65 7 83
-9z m580 11 c-3 -5 -12 -7 -20 -3 -21 7 -19 13 6 13 11 0 18 -4 14 -10z m-140
-10 c-3 -5 -12 -7 -20 -3 -21 7 -19 13 6 13 11 0 18 -4 14 -10z m172 -26 c-3
-3 -12 -4 -19 -1 -8 3 -5 6 6 6 11 1 17 -2 13 -5z m-377 -34 c0 -5 -2 -10 -4
-10 -3 0 -8 5 -11 10 -3 6 -1 10 4 10 6 0 11 -4 11 -10z m1030 -10 c0 -5 -4
-10 -10 -10 -5 0 -10 5 -10 10 0 6 5 10 10 10 6 0 10 -4 10 -10z m-1246 -9 c3
-5 -4 -11 -17 -15 -33 -9 -37 -7 -31 9 7 16 39 20 48 6z m346 -10 c0 -12 -39
-25 -48 -16 -7 7 17 25 36 25 6 0 12 -4 12 -9z m-1620 -11 c0 -5 -5 -10 -11
-10 -5 0 -7 5 -4 10 3 6 8 10 11 10 2 0 4 -4 4 -10z m124 -15 c-4 -8 -10 -15
-15 -15 -5 0 -9 7 -9 15 0 8 7 15 15 15 9 0 12 -6 9 -15z m1596 -11 c0 -8 -4
-14 -10 -14 -5 0 -10 9 -10 21 0 11 5 17 10 14 6 -3 10 -13 10 -21z m-2098
-41 c-4 -31 -19 -53 -35 -53 -6 0 -3 6 7 13 11 8 15 19 10 30 -8 22 -30 16
-26 -7 3 -18 -13 -22 -23 -6 -4 6 4 19 16 29 l23 18 -22 7 c-12 4 -22 11 -22
15 0 5 17 3 38 -4 32 -12 37 -17 34 -42z m2751 40 c-7 -2 -19 -2 -25 0 -7 3
-2 5 12 5 14 0 19 -2 13 -5z m-1620 -27 c12 4 18 -1 23 -21 3 -14 4 -29 0 -32
-3 -4 -6 4 -6 16 0 18 -4 20 -25 15 -16 -4 -25 -2 -25 6 0 6 -5 8 -12 4 -9 -5
-8 -2 1 10 9 11 17 13 21 6 4 -6 14 -8 23 -4z m455 -1 c2 -2 1 -9 -3 -15 -5
-8 -11 -5 -20 7 -13 17 -14 17 -29 -2 -15 -20 -15 -19 -9 3 5 20 10 22 32 17
14 -4 28 -8 29 -10z m229 9 c-3 -3 -12 -4 -19 -1 -8 3 -5 6 6 6 11 1 17 -2 13
-5z m-1962 -14 c3 -5 -1 -10 -10 -10 -9 0 -13 5 -10 10 3 6 8 10 10 10 2 0 7
-4 10 -10z m2350 0 c3 -5 1 -10 -4 -10 -6 0 -11 5 -11 10 0 6 2 10 4 10 3 0 8
-4 11 -10z m-1325 -10 c0 -5 -2 -10 -4 -10 -3 0 -8 5 -11 10 -3 6 -1 10 4 10
6 0 11 -4 11 -10z m-1070 -25 c0 -8 -4 -17 -10 -20 -6 -4 -10 5 -10 20 0 15 4
24 10 20 6 -3 10 -12 10 -20z m85 15 c3 -5 1 -10 -4 -10 -6 0 -11 5 -11 10 0
6 2 10 4 10 3 0 8 -4 11 -10z m1052 -6 c3 -8 12 -13 19 -10 8 3 11 0 7 -10 -7
-18 -13 -18 -41 2 -12 8 -20 20 -17 25 9 14 25 11 32 -7z m677 -8 c-3 -9 -10
-16 -15 -16 -5 0 -4 9 3 20 14 22 21 20 12 -4z m353 18 c-3 -3 -12 -4 -19 -1
-8 3 -5 6 6 6 11 1 17 -2 13 -5z m-1382 -14 c-3 -5 -11 -10 -16 -10 -6 0 -7 5
-4 10 3 6 11 10 16 10 6 0 7 -4 4 -10z m1820 0 c-3 -5 -10 -10 -16 -10 -5 0
-9 5 -9 10 0 6 7 10 16 10 8 0 12 -4 9 -10z m-2007 -26 c10 4 -5 -14 -33 -38
-27 -25 -53 -45 -56 -46 -4 0 -22 -13 -40 -30 -38 -33 -51 -38 -43 -15 4 8 11
15 18 15 18 1 58 39 51 50 -3 5 0 7 8 4 8 -3 20 2 27 11 10 12 10 15 -4 15
-12 0 -8 9 16 32 28 27 33 29 36 14 3 -11 9 -15 20 -12z m-364 7 c9 -13 -19
-32 -38 -25 -9 3 -16 1 -16 -5 0 -6 5 -12 10 -12 6 -1 15 -3 20 -4 6 -1 13 -3
16 -4 4 0 1 -7 -5 -15 -9 -11 -9 -15 1 -19 10 -4 10 -6 0 -6 -8 -1 -16 8 -19
19 -3 10 -15 22 -26 26 -20 6 -20 7 7 30 29 26 42 29 50 15z m1783 3 c-3 -3
-12 -4 -19 -1 -8 3 -5 6 6 6 11 1 17 -2 13 -5z m-1547 -14 c0 -5 -2 -10 -4
-10 -3 0 -8 5 -11 10 -3 6 -1 10 4 10 6 0 11 -4 11 -10z m2585 -18 c0 -31 -19
-28 -23 4 -3 18 0 25 10 22 7 -3 13 -14 13 -26z m365 18 c0 -5 -4 -10 -9 -10
-6 0 -13 5 -16 10 -3 6 1 10 9 10 9 0 16 -4 16 -10z m-2910 -4 c0 -2 -8 -10
-17 -17 -16 -13 -17 -12 -4 4 13 16 21 21 21 13z m1807 -21 c-4 -8 -13 -15
-22 -15 -21 0 -19 28 3 32 22 5 26 2 19 -17z m-1867 5 c0 -5 -4 -10 -10 -10
-5 0 -10 5 -10 10 0 6 5 10 10 10 6 0 10 -4 10 -10z m700 -20 c0 -5 -7 -10
-16 -10 -8 0 -12 5 -9 10 3 6 10 10 16 10 5 0 9 -4 9 -10z m205 -11 c9 -27 1
-33 -25 -19 -17 9 -19 14 -9 26 16 20 27 18 34 -7z m-1048 -41 c-18 -15 -39
-28 -47 -28 -8 0 -1 9 16 19 35 21 51 41 34 41 -6 0 -8 4 -5 10 4 6 11 5 20
-3 12 -10 9 -16 -18 -39z m81 36 c22 -15 25 -15 45 2 12 10 16 12 10 4 -18
-20 -16 -30 5 -23 11 4 8 -4 -10 -21 -30 -29 -32 -34 -20 -53 5 -8 13 -9 22
-3 22 14 33 12 26 -5 -3 -9 0 -15 8 -15 20 0 27 12 15 26 -12 15 -4 34 14 34
8 0 7 -4 -2 -9 -12 -8 -12 -12 -2 -25 7 -9 16 -14 20 -12 4 3 13 1 21 -5 13
-7 13 -9 0 -10 -8 -1 -23 0 -34 1 -17 2 -17 0 3 -21 25 -27 27 -39 6 -39 -8 0
-15 -5 -15 -11 0 -5 -5 -7 -10 -4 -8 5 -7 11 1 21 14 18 3 48 -15 41 -8 -3
-16 -1 -18 5 -3 7 -10 8 -17 4 -11 -7 -11 -10 0 -18 11 -8 11 -9 -1 -5 -8 2
-15 9 -15 14 0 6 -3 14 -7 18 -9 9 -50 -4 -43 -15 3 -4 -2 -10 -10 -14 -22 -8
-18 2 11 29 20 19 23 25 11 25 -11 0 -15 6 -11 18 4 10 3 13 -3 6 -4 -6 -19
-15 -33 -19 l-25 -7 25 21 c16 15 32 20 47 16 13 -3 23 -1 23 5 0 5 -5 10 -11
10 -5 0 -7 5 -4 10 9 14 -8 12 -24 -2 -12 -11 -13 -10 -7 6 4 12 1 23 -6 28
-7 4 -8 8 -3 8 6 0 21 -7 33 -16z m1419 -6 c-3 -8 -6 -5 -6 6 -1 11 2 17 5 13
3 -3 4 -12 1 -19z m-1227 -29 c-6 -20 -5 -29 3 -29 8 0 8 -3 -1 -12 -7 -7 -12
-17 -12 -22 0 -6 7 -2 15 8 8 10 11 24 8 30 -4 6 4 2 17 -9 13 -11 20 -15 17
-8 -4 6 -3 14 3 18 6 4 10 -5 10 -21 0 -27 1 -27 16 -8 14 18 15 18 4 -3 -6
-13 -18 -23 -26 -23 -8 0 -12 5 -9 10 9 15 -8 12 -33 -6 -15 -10 -22 -26 -22
-47 l0 -32 -14 25 c-8 16 -9 29 -3 37 12 17 1 43 -18 43 -9 0 -13 5 -10 11 4
6 13 8 20 5 8 -3 12 2 10 12 -1 10 -10 16 -19 14 -9 -2 -16 2 -16 8 0 5 6 10
14 10 8 0 16 7 20 15 3 8 12 12 20 9 11 -4 12 -13 6 -35z m2061 8 c-10 -9 -11
-8 -5 6 3 10 9 15 12 12 3 -3 0 -11 -7 -18z m1729 13 c0 -5 -2 -10 -4 -10 -3
0 -8 5 -11 10 -3 6 -1 10 4 10 6 0 11 -4 11 -10z m-4240 -20 c0 -5 -9 -10 -21
-10 -11 0 -17 5 -14 10 3 6 13 10 21 10 8 0 14 -4 14 -10z m135 0 c-3 -5 -12
-10 -18 -10 -7 0 -6 4 3 10 19 12 23 12 15 0z m574 -41 c-10 -7 -3 -8 21 -3
19 3 38 12 42 18 5 7 8 3 8 -9 0 -21 -17 -45 -32 -45 -4 0 -7 6 -5 13 1 7 -7
11 -20 9 -23 -3 -40 13 -23 23 5 3 10 11 10 16 0 6 -4 7 -10 4 -11 -7 -14 8
-3 19 4 4 12 -2 17 -14 7 -16 6 -24 -5 -31z m799 39 c-2 -6 4 -20 15 -31 10
-10 16 -21 13 -25 -4 -3 -14 4 -22 17 -9 12 -21 20 -28 18 -6 -3 -12 4 -12 14
0 12 7 19 19 19 10 0 17 -5 15 -12z m257 -8 c10 -11 16 -20 13 -20 -3 0 -13 9
-23 20 -10 11 -16 20 -13 20 3 0 13 -9 23 -20z m591 -17 c-11 -11 -17 4 -9 23
7 18 8 18 11 1 2 -10 1 -21 -2 -24z m-2531 7 c-3 -5 -12 -10 -18 -10 -7 0 -6
4 3 10 19 12 23 12 15 0z m245 6 c0 -2 -7 -6 -15 -10 -8 -3 -15 -1 -15 4 0 6
7 10 15 10 8 0 15 -2 15 -4z m28 -21 c0 -14 -3 -25 -7 -25 -3 0 -17 -10 -31
-23 -14 -12 -38 -28 -55 -35 -27 -11 -28 -11 -11 3 11 8 22 15 26 15 3 0 14
16 24 35 14 26 22 32 32 24 9 -8 11 -5 7 10 -3 12 -1 21 5 21 5 0 10 -11 10
-25z m2759 19 c-3 -3 -12 -4 -19 -1 -8 3 -5 6 6 6 11 1 17 -2 13 -5z m-2667
-8 c0 -2 -12 -12 -27 -21 l-28 -18 19 21 c17 20 36 29 36 18z m380 -6 c0 -5
-2 -10 -4 -10 -3 0 -8 5 -11 10 -3 6 -1 10 4 10 6 0 11 -4 11 -10z m25 -20
c-17 -19 -17 -20 0 -20 17 0 17 -1 0 -20 -10 -11 -25 -19 -34 -19 -14 1 -14 2
1 6 11 3 15 12 12 29 -2 13 0 24 6 24 6 0 8 5 5 10 -3 6 2 10 11 10 16 0 16
-1 -1 -20z m215 9 c0 -8 6 -7 17 2 15 13 16 12 11 -8 -4 -13 -2 -23 3 -23 5 0
9 7 9 15 0 8 5 15 10 15 6 0 8 -11 6 -24 -2 -14 1 -27 7 -29 7 -2 2 -12 -12
-23 -13 -10 -30 -25 -38 -33 -19 -18 -29 -6 -10 13 8 8 18 12 21 8 4 -3 4 2 0
11 -6 17 -7 17 -28 0 -11 -10 -25 -24 -30 -31 -4 -8 -19 -23 -32 -35 -18 -15
-21 -23 -13 -34 17 -20 32 -16 64 17 29 30 58 43 35 15 -15 -18 3 -20 22 -2
15 13 38 20 38 11 0 -3 -20 -26 -45 -50 -43 -42 -75 -56 -75 -34 0 6 4 10 10
10 5 0 15 10 21 22 11 20 8 19 -21 -6 l-34 -28 -14 27 c-8 16 -19 24 -28 21
-21 -8 -17 -1 21 40 34 36 41 60 11 35 -8 -7 -24 -10 -34 -7 -11 4 -24 0 -32
-9 -7 -8 -18 -15 -24 -15 -6 0 -3 5 7 11 9 5 17 17 17 25 0 9 -5 12 -12 8 -7
-4 -8 -3 -4 5 6 9 14 8 32 -3 21 -15 26 -14 59 4 19 11 35 15 35 10 0 -17 15
-11 28 11 12 19 12 20 -10 14 -23 -7 -23 -7 -3 9 11 8 15 16 9 16 -12 0 -15
30 -2 30 4 0 8 -5 8 -11z m1208 -12 c4 -21 -36 -43 -51 -28 -7 7 -5 16 8 31
21 23 38 22 43 -3z m-1344 -3 c4 -10 2 -13 -7 -9 -6 4 -4 0 6 -8 9 -8 17 -20
17 -28 -1 -10 -4 -9 -11 4 -8 14 -14 15 -32 5 -19 -9 -20 -9 -11 3 6 8 10 22
9 32 -4 21 21 23 29 1z m634 4 c-3 -12 -36 -48 -44 -48 -2 0 -1 7 2 15 4 8 10
15 16 15 5 0 7 4 4 9 -5 8 2 14 22 20 1 1 1 -5 0 -11z m142 -7 c0 -22 -25 -45
-40 -36 -5 3 -10 17 -10 31 0 19 5 24 25 24 18 0 25 -5 25 -19z m1839 6 c8
-11 4 -13 -24 -13 -34 1 -42 6 -28 19 11 11 40 8 52 -6z m-3065 -11 c-3 -8
-13 -17 -22 -21 -13 -5 -13 -2 3 15 21 24 26 25 19 6z m-390 -11 c-5 -11 -2
-13 10 -9 12 5 10 -1 -6 -19 -12 -14 -27 -23 -32 -19 -6 3 -5 7 2 10 7 2 12 8
12 13 0 4 -7 6 -15 3 -8 -3 -20 -2 -27 2 -8 5 -3 12 17 20 40 17 45 17 39 -1z
m1556 5 c0 -13 -34 -22 -38 -10 -3 7 -9 7 -20 -2 -15 -11 -15 -11 -5 2 12 16
63 24 63 10z m2030 0 c0 -5 -4 -10 -9 -10 -6 0 -13 5 -16 10 -3 6 1 10 9 10 9
0 16 -4 16 -10z m-2885 -29 c-3 -6 -14 -11 -23 -11 -15 1 -15 2 2 15 21 16 32
13 21 -4z m939 13 c25 -9 19 -24 -9 -24 -24 0 -32 10 -18 23 8 8 8 8 27 1z
m-1294 -14 c0 -6 -8 -13 -17 -17 -10 -3 -31 -15 -47 -27 -16 -11 -26 -14 -22
-8 6 10 73 59 84 61 1 1 2 -4 2 -9z m100 0 c0 -5 -5 -10 -11 -10 -5 0 -7 5 -4
10 3 6 8 10 11 10 2 0 4 -4 4 -10z m450 1 c0 -5 -7 -12 -16 -15 -14 -5 -15 -4
-4 9 14 17 20 19 20 6z m910 -1 c0 -5 -7 -10 -16 -10 -8 0 -12 5 -9 10 3 6 10
10 16 10 5 0 9 -4 9 -10z m-1735 -29 c-11 -11 -33 -23 -50 -26 -29 -6 -29 -6
-11 9 11 9 28 16 37 16 10 0 21 5 24 10 3 6 9 10 13 10 3 0 -2 -9 -13 -19z
m449 12 c-5 -5 -12 -12 -16 -18 -4 -6 -8 -2 -8 8 0 9 7 17 17 17 9 0 12 -3 7
-7z m263 1 c-3 -3 -12 -4 -19 -1 -8 3 -5 6 6 6 11 1 17 -2 13 -5z m-522 -14
c-3 -5 -11 -10 -16 -10 -6 0 -7 5 -4 10 3 6 11 10 16 10 6 0 7 -4 4 -10z m105
6 c0 -2 -7 -7 -16 -10 -8 -3 -12 -2 -9 4 6 10 25 14 25 6z m50 0 c0 -2 -7 -7
-16 -10 -8 -3 -12 -2 -9 4 6 10 25 14 25 6z m57 -30 c-4 -9 -12 -16 -19 -15
-9 0 -9 2 -2 5 7 3 9 15 7 27 -5 17 -3 20 7 10 7 -6 10 -19 7 -27z m216 19
c-3 -9 -8 -14 -10 -11 -3 3 -2 9 2 15 9 16 15 13 8 -4z m362 5 c-3 -5 1 -10 9
-10 9 0 16 -5 16 -10 0 -7 -6 -7 -20 0 -11 6 -20 8 -20 5 0 -4 -5 -3 -11 1 -8
4 -7 9 2 15 19 12 32 11 24 -1z m945 1 c0 -13 -26 -32 -33 -24 -14 13 -6 33
13 33 11 0 20 -4 20 -9z m-1419 -34 c-10 -9 -11 -8 -5 6 3 10 9 15 12 12 3 -3
0 -11 -7 -18z m-651 9 c0 -3 -4 -8 -10 -11 -5 -3 -10 -1 -10 4 0 6 5 11 10 11
6 0 10 -2 10 -4z m3421 -13 c13 -16 12 -17 -3 -4 -10 7 -18 15 -18 17 0 8 8 3
21 -13z m-3351 -8 c0 -11 -29 -11 -33 -1 -4 10 1 12 14 9 10 -3 19 -7 19 -8z
m857 0 c0 -8 -4 -12 -9 -9 -5 3 -6 10 -3 15 9 13 12 11 12 -6z m-807 1 c0 -11
-19 -15 -25 -6 -3 5 1 10 9 10 9 0 16 -2 16 -4z m85 -6 c-3 -5 -12 -10 -18
-10 -7 0 -6 4 3 10 19 12 23 12 15 0z m595 6 c0 -2 -7 -6 -15 -10 -8 -3 -15
-1 -15 4 0 6 7 10 15 10 8 0 15 -2 15 -4z m75 -7 c3 -3 -3 -13 -12 -22 -17
-14 -18 -14 -18 7 0 21 16 29 30 15z m3125 -19 c0 -16 -4 -30 -10 -30 -5 0
-10 6 -10 14 0 8 -3 21 -6 30 -4 11 -1 16 10 16 11 0 16 -9 16 -30z m-3435 10
c-3 -5 -12 -10 -18 -10 -7 0 -6 4 3 10 19 12 23 12 15 0z m95 -22 c0 -11 -5
-16 -10 -13 -6 4 -17 1 -25 -5 -18 -15 -18 -10 -5 24 11 30 40 26 40 -6z m610
10 c0 -5 -7 -8 -15 -4 -8 3 -15 1 -15 -4 0 -6 5 -10 11 -10 14 0 40 -26 33
-33 -8 -7 -37 4 -46 17 -4 7 -18 3 -37 -12 -26 -19 -29 -19 -24 -5 8 21 19 32
53 54 26 17 40 16 40 -3z m273 2 c9 -11 17 -25 17 -30 0 -5 7 -7 15 -4 19 8
19 -1 -1 -31 -20 -31 -34 -32 -26 -3 6 23 -5 20 -40 -10 -11 -9 -18 -11 -18
-4 0 6 4 14 10 17 5 3 15 15 21 26 9 19 9 19 -10 10 -27 -15 -28 -14 -33 14
-5 26 16 36 25 13 3 -8 6 -6 6 5 1 23 13 22 34 -3z m107 10 c0 -5 6 -7 14 -4
7 3 16 -2 20 -11 3 -9 10 -13 16 -10 5 3 10 3 10 -2 -1 -12 -69 -83 -80 -83
-16 0 -12 20 5 26 8 4 15 12 15 19 0 7 7 15 15 19 8 3 15 10 15 17 0 6 -7 9
-15 6 -8 -4 -17 -2 -20 2 -3 5 -14 7 -25 4 -11 -3 -20 -1 -20 5 0 9 15 17 43
21 4 0 7 -3 7 -9z m345 1 c3 -6 -3 -18 -13 -28 -10 -10 -22 -27 -26 -37 -3
-10 -9 -16 -13 -13 -3 4 2 18 11 31 9 14 16 32 16 41 0 17 16 20 25 6z m340
-1 c-3 -5 -11 -10 -16 -10 -6 0 -7 5 -4 10 3 6 11 10 16 10 6 0 7 -4 4 -10z
m-1644 -43 c-13 -13 -15 1 -4 30 7 17 8 17 11 -1 2 -10 -1 -23 -7 -29z m759
33 c0 -5 -7 -10 -16 -10 -8 0 -12 5 -9 10 3 6 10 10 16 10 5 0 9 -4 9 -10z
m140 6 c0 -3 -4 -8 -10 -11 -5 -3 -10 -1 -10 4 0 6 5 11 10 11 6 0 10 -2 10
-4z m157 -2 c-3 -3 -12 -4 -19 -1 -8 3 -5 6 6 6 11 1 17 -2 13 -5z m91 -1
c-20 -5 -24 -29 -6 -35 8 -3 8 -9 0 -24 -6 -10 -12 -13 -12 -6 0 18 -18 15
-52 -10 l-30 -21 12 24 c17 32 71 79 90 78 11 -1 10 -3 -2 -6z m-1028 -7 c0
-3 -4 -8 -10 -11 -5 -3 -10 -1 -10 4 0 6 5 11 10 11 6 0 10 -2 10 -4z m360
-23 c-24 -17 -33 -13 -25 9 4 10 14 14 26 11 19 -5 19 -6 -1 -20z m167 13 c-4
-10 -1 -13 9 -9 7 3 14 1 14 -4 0 -11 -21 -33 -32 -33 -12 0 -30 39 -23 50 10
16 38 12 32 -4z m443 5 c0 -5 -9 -13 -20 -16 -11 -3 -20 -11 -20 -17 0 -6 -3
-8 -7 -5 -3 4 2 16 12 27 19 21 35 26 35 11z m-1040 -16 c-7 -8 -18 -15 -24
-15 -6 0 -2 7 8 15 25 19 32 19 16 0z m5104 -13 c9 22 10 21 19 -15 7 -24 16
-36 25 -35 8 2 17 -3 20 -11 3 -9 -1 -11 -17 -6 -15 5 -21 2 -21 -9 0 -24 -22
-19 -48 12 -22 26 -23 26 -19 4 5 -21 3 -22 -31 -16 -21 4 -40 9 -44 11 -15 8
-8 23 11 23 12 0 24 12 32 29 l13 29 25 -19 25 -20 10 23z m-4446 -4 c-6 -18
-28 -21 -28 -4 0 9 7 16 16 16 9 0 14 -5 12 -12z m-448 -28 c24 0 26 -15 4
-24 -9 -4 -25 0 -34 9 -17 16 -47 11 -63 -9 -6 -7 -7 -6 -5 4 3 8 18 22 34 31
24 13 30 14 37 3 4 -8 17 -14 27 -14z m690 23 c0 -10 -32 -43 -42 -43 -12 0
-10 24 4 38 13 13 38 16 38 5z m-1055 -23 c-3 -5 -14 -10 -23 -10 -15 0 -15 2
-2 10 20 13 33 13 25 0z m830 0 c-3 -5 -11 -10 -16 -10 -6 0 -7 5 -4 10 3 6
11 10 16 10 6 0 7 -4 4 -10z m288 -5 c-3 -9 -8 -14 -10 -11 -3 3 -2 9 2 15 9
16 15 13 8 -4z m757 11 c0 -11 -19 -15 -25 -6 -3 5 1 10 9 10 9 0 16 -2 16 -4z
m50 -6 c0 -5 -8 -10 -17 -10 -15 0 -16 2 -3 10 19 12 20 12 20 0z m68 -8 c2
-7 -6 -12 -17 -12 -21 0 -27 11 -14 24 9 9 26 2 31 -12z m122 -26 c0 -5 -9 -1
-20 9 -11 10 -17 22 -14 27 6 9 33 -20 34 -36z m40 34 c0 -5 -4 -10 -10 -10
-5 0 -10 5 -10 10 0 6 5 10 10 10 6 0 10 -4 10 -10z m-2010 -4 c0 -3 -4 -8
-10 -11 -5 -3 -10 -1 -10 4 0 6 5 11 10 11 6 0 10 -2 10 -4z m364 -5 c3 -5 -5
-8 -18 -7 -13 0 -22 4 -19 9 6 10 31 9 37 -2z m150 -16 c-9 -14 -20 -25 -25
-25 -5 0 -2 11 7 25 9 14 20 25 25 25 5 0 2 -11 -7 -25z m76 15 c0 -5 -4 -10
-10 -10 -5 0 -10 5 -10 10 0 6 5 10 10 10 6 0 10 -4 10 -10z m51 -10 c10 0 19
-4 19 -10 0 -5 -6 -10 -12 -10 -19 1 -49 26 -41 34 4 4 9 2 11 -3 2 -6 12 -11
23 -11z m839 10 c0 -5 -4 -10 -10 -10 -5 0 -10 5 -10 10 0 6 5 10 10 10 6 0
10 -4 10 -10z m56 -46 c23 9 44 -4 44 -28 0 -21 -1 -21 -19 3 -12 16 -21 20
-25 12 -10 -16 -47 5 -41 24 15 46 19 49 23 17 2 -24 7 -32 18 -28z m49 46
c-3 -5 -15 -15 -26 -21 -18 -9 -19 -9 -7 10 7 12 19 21 26 21 7 0 10 -4 7 -10z
m81 -12 c3 -10 10 -16 15 -13 5 4 9 1 9 -4 0 -18 -39 -12 -59 8 -22 22 -18 30
10 28 10 -1 22 -9 25 -19z m614 18 c0 -11 -19 -15 -25 -6 -3 5 1 10 9 10 9 0
16 -2 16 -4z m40 -4 c0 -5 -6 -17 -14 -28 -19 -25 -31 -12 -14 15 13 21 28 28
28 13z m103 -30 c-22 -5 -27 5 -12 21 12 13 15 13 20 -2 4 -10 1 -17 -8 -19z
m-1181 6 c-6 -6 -15 -8 -19 -4 -4 4 -1 11 7 16 19 12 27 3 12 -12z m3435 16
c-3 -3 -12 -4 -19 -1 -8 3 -5 6 6 6 11 1 17 -2 13 -5z m-2605 -26 c-7 -7 -12
-8 -12 -2 0 14 12 26 19 19 2 -3 -1 -11 -7 -17z m2508 12 c0 -5 -4 -10 -10
-10 -5 0 -10 5 -10 10 0 6 5 10 10 10 6 0 10 -4 10 -10z m-4587 -7 c4 -4 -7
-13 -24 -20 -36 -15 -48 -11 -29 12 13 16 42 20 53 8z m158 -22 c-7 -13 -17
-18 -27 -14 -14 5 -13 9 7 24 28 21 35 18 20 -10z m184 19 c3 -5 -1 -10 -9
-10 -8 0 -18 5 -21 10 -3 6 1 10 9 10 8 0 18 -4 21 -10z m505 0 c0 -5 -2 -10
-4 -10 -3 0 -8 5 -11 10 -3 6 -1 10 4 10 6 0 11 -4 11 -10z m330 -11 c0 -5 -7
-9 -15 -9 -15 0 -20 12 -9 23 8 8 24 -1 24 -14z m700 14 c0 -5 -7 -17 -15 -27
-15 -20 -15 -20 -15 0 0 12 3 24 7 27 9 9 23 9 23 0z m663 0 c-7 -2 -13 -11
-13 -19 0 -16 -16 -19 -25 -5 -6 10 22 31 40 30 6 0 4 -3 -2 -6z m1722 -3 c-3
-5 -13 -10 -21 -10 -8 0 -14 5 -14 10 0 6 9 10 21 10 11 0 17 -4 14 -10z
m-3494 -10 c5 0 9 -7 9 -15 0 -21 -12 -19 -34 7 -16 19 -17 20 -1 15 9 -4 21
-7 26 -7z m989 -7 c0 -10 -5 -25 -10 -33 -9 -13 -11 -13 -19 0 -7 10 -5 20 6
32 20 22 23 22 23 1z m380 2 c0 -8 -2 -15 -4 -15 -2 0 -6 7 -10 15 -3 8 -1 15
4 15 6 0 10 -7 10 -15z m870 0 c0 -8 -4 -15 -10 -15 -5 0 -10 7 -10 15 0 8 5
15 10 15 6 0 10 -7 10 -15z m1810 0 c0 -8 -4 -15 -10 -15 -5 0 -10 7 -10 15 0
8 5 15 10 15 6 0 10 -7 10 -15z m-3940 -15 c0 -5 -4 -10 -10 -10 -5 0 -10 5
-10 10 0 6 5 10 10 10 6 0 10 -4 10 -10z m770 0 c0 -5 -4 -10 -10 -10 -5 0
-10 5 -10 10 0 6 5 10 10 10 6 0 10 -4 10 -10z m1040 -5 c0 -8 -2 -15 -4 -15
-2 0 -6 7 -10 15 -3 8 -1 15 4 15 6 0 10 -7 10 -15z m270 6 c0 -6 -4 -13 -10
-16 -5 -3 -10 1 -10 9 0 9 5 16 10 16 6 0 10 -4 10 -9z m1650 -1 c0 -5 -4 -10
-10 -10 -5 0 -10 5 -10 10 0 6 5 10 10 10 6 0 10 -4 10 -10z m-1710 -9 c0 -17
-12 -41 -21 -41 -5 0 -9 11 -9 25 0 16 6 25 15 25 8 0 15 -4 15 -9z m-1216
-25 c-3 -9 -10 -16 -15 -16 -5 0 -4 9 3 20 14 22 21 20 12 -4z m1386 20 c0 -3
-4 -8 -10 -11 -5 -3 -10 -1 -10 4 0 6 5 11 10 11 6 0 10 -2 10 -4z m-2888 -28
c-7 -7 -12 -8 -12 -2 0 14 12 26 19 19 2 -3 -1 -11 -7 -17z m5078 12 c0 -5 -5
-10 -11 -10 -5 0 -7 5 -4 10 3 6 8 10 11 10 2 0 4 -4 4 -10z m-430 -10 c0 -5
-7 -10 -15 -10 -8 0 -15 5 -15 10 0 6 7 10 15 10 8 0 15 -4 15 -10z m-2990 -6
c0 -16 -32 -35 -51 -29 -23 8 -16 20 16 28 31 7 35 7 35 1z m-177 -39 c-3 -8
-9 -15 -14 -15 -10 0 -12 24 -3 33 11 11 24 -3 17 -18z m1837 21 c0 -3 -4 -8
-10 -11 -5 -3 -10 -1 -10 4 0 6 5 11 10 11 6 0 10 -2 10 -4z m-2045 -16 c-3
-5 -10 -10 -16 -10 -5 0 -9 5 -9 10 0 6 7 10 16 10 8 0 12 -4 9 -10z m45 -6
c0 -8 -5 -12 -10 -9 -6 4 -8 11 -5 16 9 14 15 11 15 -7z m110 6 c0 -5 -5 -10
-11 -10 -5 0 -7 5 -4 10 3 6 8 10 11 10 2 0 4 -4 4 -10z m-220 -10 c0 -5 -4
-10 -10 -10 -5 0 -10 5 -10 10 0 6 5 10 10 10 6 0 10 -4 10 -10z m1390 6 c0
-3 -4 -8 -10 -11 -5 -3 -10 -1 -10 4 0 6 5 11 10 11 6 0 10 -2 10 -4z m-2440
-16 c0 -5 -5 -10 -11 -10 -5 0 -7 5 -4 10 3 6 8 10 11 10 2 0 4 -4 4 -10z
m330 0 c0 -5 -4 -10 -10 -10 -5 0 -10 5 -10 10 0 6 5 10 10 10 6 0 10 -4 10
-10z"/>
<path d="M300 775 c0 -9 5 -15 11 -13 6 2 11 8 11 13 0 5 -5 11 -11 13 -6 2
-11 -4 -11 -13z"/>
<path d="M1000 670 c-14 -4 -20 -8 -13 -9 6 -1 18 -4 26 -7 8 -3 17 2 20 10 7
17 4 18 -33 6z"/>
<path d="M470 619 c0 -5 5 -7 10 -4 6 3 10 8 10 11 0 2 -4 4 -10 4 -5 0 -10
-5 -10 -11z"/>
<path d="M727 603 c-12 -12 -7 -22 8 -17 8 4 15 10 15 15 0 11 -14 12 -23 2z"/>
<path d="M375 610 c-3 -5 -2 -10 4 -10 5 0 13 5 16 10 3 6 2 10 -4 10 -5 0
-13 -4 -16 -10z"/>
<path d="M5154 1461 c-12 -12 -1 -59 18 -75 20 -18 27 -18 82 -7 69 14 180 57
195 75 8 9 -24 12 -140 11 -83 0 -153 -2 -155 -4z"/>
<path d="M2190 1390 c-8 -5 -11 -12 -8 -16 10 -9 38 3 38 16 0 12 -10 13 -30
0z"/>
<path d="M1036 1316 c4 -9 -7 -15 -35 -20 -32 -5 -41 -11 -41 -25 0 -33 37
-36 75 -6 39 29 47 65 15 65 -12 0 -17 -5 -14 -14z"/>
<path d="M2727 1251 c-15 -16 -16 -20 -3 -30 23 -19 106 10 106 36 0 17 -17
17 -23 1 -4 -10 -7 -10 -18 0 -18 17 -41 14 -62 -7z"/>
<path d="M898 1185 c-15 -20 -16 -25 -3 -35 20 -17 45 4 38 31 -8 29 -16 30
-35 4z"/>
<path d="M6100 1191 c0 -17 18 -21 24 -6 3 9 0 15 -9 15 -8 0 -15 -4 -15 -9z"/>
<path d="M496 1171 c-12 -19 29 -48 72 -49 46 -2 56 6 39 29 -14 19 -102 35
-111 20z"/>
<path d="M1027 1155 c-15 -21 -15 -25 -3 -25 16 0 46 26 46 41 0 18 -25 8 -43
-16z"/>
<path d="M2740 1171 c0 -5 5 -13 10 -16 6 -3 10 -2 10 4 0 5 -4 13 -10 16 -5
3 -10 2 -10 -4z"/>
<path d="M111 1158 l-25 -9 32 -31 c31 -31 57 -34 32 -3 -7 8 -10 21 -7 30 8
20 -3 24 -32 13z"/>
<path d="M2030 1150 c0 -5 5 -10 11 -10 5 0 7 5 4 10 -3 6 -8 10 -11 10 -2 0
-4 -4 -4 -10z"/>
<path d="M213 1128 c-6 -7 -13 -21 -16 -30 -5 -13 -2 -15 11 -11 27 10 46 53
23 53 -5 0 -13 -6 -18 -12z"/>
<path d="M2555 1130 c-11 -18 6 -30 41 -27 38 2 43 11 15 27 -25 13 -48 13
-56 0z"/>
<path d="M293 1123 c-7 -3 -13 -13 -13 -24 0 -12 -7 -19 -19 -19 -24 0 -81
-20 -81 -29 0 -3 18 -6 40 -6 22 0 40 3 40 7 0 4 7 5 15 2 8 -4 15 -1 15 5 0
6 6 11 14 11 8 0 16 6 19 14 7 18 -14 45 -30 39z"/>
<path d="M43 1083 c-15 -5 -17 -23 -4 -23 5 0 11 7 15 15 3 8 4 15 3 14 -1 0
-8 -3 -14 -6z"/>
<path d="M10 620 c-9 -6 -10 -10 -3 -10 6 0 15 5 18 10 8 12 4 12 -15 0z"/>
<path d="M0 588 c0 -11 12 -10 30 2 12 7 10 9 -8 7 -12 0 -22 -5 -22 -9z"/>
<path d="M24 548 c-4 -7 -3 -8 4 -4 7 4 12 3 12 -2 0 -16 -13 -22 -27 -11 -10
9 -13 8 -13 -4 0 -26 28 -27 44 -2 13 20 13 24 1 29 -8 3 -17 0 -21 -6z"/>
<path d="M75 539 c-11 -17 -2 -18 25 -4 24 14 24 14 3 15 -12 0 -25 -5 -28
-11z"/>
<path d="M245 440 c-4 -6 3 -10 14 -10 25 0 27 6 6 13 -8 4 -17 2 -20 -3z"/>
<path d="M5 420 c-3 -5 -2 -10 4 -10 5 0 13 5 16 10 3 6 2 10 -4 10 -5 0 -13
-4 -16 -10z"/>
</g>
</svg>
